<svg xmlns="http://www.w3.org/2000/svg" data-name="Layer 1" width="923.8" height="753.71"><path fill="#fefefe" d="M846.97 0v720l-244-34-296.61 60.51-2.39.49-236-65V56l245-56 268 56 10.19-2.15L846.97 0z"/><path fill="#00b0ff" d="M805.97 39.32v644.21l-218.31-30.42-265.39 54.14-2.14.43-211.16-58.15V89.42l219.22-50.1 239.78 50.1 9.12-1.92 228.88-48.18z"/><g stroke="#fff" stroke-width="5.7" stroke-linecap="square" fill="none"><path d="M573.35 138l.12 209.5h87v-86h149l17.5-22.44M88.97 204.5h323.5l20-9h8v202h140l6 18v91h108V619M483.2 619V397.5M826.97 559.66H483.2M740.87 138v481M87.97 517.14h739M177.91 619V138M349.69 138v481M88.97 259.5l571.5 2M255.3 138.87V619"/><path d="M87.97 370.82h261.72L483.2 517.14M512.12 138v259.5M483.2 443.98h343.77"/></g><path d="M312.97 0l-245 56v626l236 65 2.39-.49L602.97 686l244 34V0L591.16 53.85 580.97 56l-268-56zm15.22 39.32l239.78 50.1 9.12-1.92 228.88-48.18v644.21l-218.31-30.42-265.39 54.14-2.14.43-211.16-58.15V89.42l219.22-50.1z" fill="#fff"/><path opacity=".1" d="M602.97 686l-296.61 60.51L312.97 0l268 56 10.19-2.15L602.97 686z"/><path d="M535.97 214a55.28 55.28 0 00-55.28 55.28c0 30.53 55.28 129.72 55.28 129.72s55.28-99.15 55.28-129.72A55.28 55.28 0 00535.97 214zm0 78.86a24.32 24.32 0 1124.32-24.32 24.32 24.32 0 01-24.32 24.31z" fill="#00b0ff"/><path d="M535.97 214a55.28 55.28 0 00-55.28 55.28c0 30.53 55.28 129.72 55.28 129.72s55.28-99.15 55.28-129.72A55.28 55.28 0 00535.97 214zm0 78.86a24.32 24.32 0 1124.32-24.32 24.32 24.32 0 01-24.32 24.31z" opacity=".1"/><path d="M535.97 222a55.28 55.28 0 00-55.28 55.28c0 30.53 55.28 129.72 55.28 129.72s55.28-99.15 55.28-129.72A55.28 55.28 0 00535.97 222zm0 78.86a24.32 24.32 0 1124.32-24.32 24.32 24.32 0 01-24.32 24.31z" fill="#fff"/><path d="M270.622 473.336a36.085 36.085 0 00-36.084 36.085c0 19.929 36.084 84.676 36.084 84.676s36.085-64.721 36.085-84.676a36.085 36.085 0 00-36.085-36.085zm0 51.477a15.875 15.875 0 1115.876-15.875 15.875 15.875 0 01-15.876 15.869z" fill="#00b0ff"/><path d="M270.622 473.336a36.085 36.085 0 00-36.084 36.085c0 19.929 36.084 84.676 36.084 84.676s36.085-64.721 36.085-84.676a36.085 36.085 0 00-36.085-36.085zm0 51.477a15.875 15.875 0 1115.876-15.875 15.875 15.875 0 01-15.876 15.869z" opacity=".1"/><path d="M270.622 478.558a36.085 36.085 0 00-36.084 36.085c0 19.929 36.084 84.676 36.084 84.676s36.085-64.721 36.085-84.676a36.085 36.085 0 00-36.085-36.085zm0 51.477a15.875 15.875 0 1115.876-15.875 15.875 15.875 0 01-15.876 15.869z" fill="#00b0ff"/><path d="M270.622 478.558a36.085 36.085 0 00-36.084 36.085c0 19.929 36.084 84.676 36.084 84.676s36.085-64.721 36.085-84.676a36.085 36.085 0 00-36.085-36.085zm0 51.477a15.875 15.875 0 1115.876-15.875 15.875 15.875 0 01-15.876 15.869z" fill="#fff"/><path d="M198.358 148.203a49.634 49.634 0 00-49.635 49.634c0 27.412 49.635 116.472 49.635 116.472s49.634-89.024 49.634-116.472a49.634 49.634 0 00-49.634-49.634zm0 70.806a21.836 21.836 0 1121.836-21.836A21.836 21.836 0 01198.358 219z" fill="#00b0ff"/><path d="M198.358 148.203a49.634 49.634 0 00-49.635 49.634c0 27.412 49.635 116.472 49.635 116.472s49.634-89.024 49.634-116.472a49.634 49.634 0 00-49.634-49.634zm0 70.806a21.836 21.836 0 1121.836-21.836A21.836 21.836 0 01198.358 219z" opacity=".1"/><path d="M198.358 155.386a49.634 49.634 0 00-49.635 49.634c0 27.412 49.635 116.472 49.635 116.472s49.634-89.024 49.634-116.472a49.634 49.634 0 00-49.634-49.634zm0 70.806a21.836 21.836 0 1121.836-21.836 21.836 21.836 0 01-21.836 21.827z" fill="#00b0ff"/><path d="M198.358 155.386a49.634 49.634 0 00-49.635 49.634c0 27.412 49.635 116.472 49.635 116.472s49.634-89.024 49.634-116.472a49.634 49.634 0 00-49.634-49.634zm0 70.806a21.836 21.836 0 1121.836-21.836 21.836 21.836 0 01-21.836 21.827z" fill="#fff"/></svg>