<svg xmlns="http://www.w3.org/2000/svg" viewBox="0 0 53.39 53.28"><defs><style>.cls-1{fill:#001234;}.cls-2{fill:#fff;}</style></defs><g id="Layer_2" data-name="Layer 2"><g id="Layer_1-2" data-name="Layer 1"><path id="square" class="cls-1" d="M1.5,0H51.89a1.5,1.5,0,0,1,1.5,1.5V51.77a1.52,1.52,0,0,1-1.51,1.51H1.51A1.51,1.51,0,0,1,0,51.77H0V1.5A1.5,1.5,0,0,1,1.5,0Z"/><path id="Union_1" data-name="Union 1" class="cls-2" d="M17,38.2v-17h6.21v17Zm14,0H24.82V15.07h7.87q5.56,0,8.6,2.85t3,8.23c0,3.85-1.06,6.83-3.19,8.91s-5.11,3.13-9,3.14ZM31,33.07h1.3a5.05,5.05,0,0,0,4.17-1.65,8,8,0,0,0,1.33-5.05,7.34,7.34,0,0,0-1.26-4.72,4.66,4.66,0,0,0-3.82-1.53H31ZM9.15,38.2V27.55h6.21V38.2Z"/></g></g></svg>