<svg xmlns="http://www.w3.org/2000/svg" data-name="Layer 1" width="1013.58" height="769.76"><path d="M935.22 718.22L831.5 538.57a3.3 3.3 0 00-5.73 0L722.05 718.22a3.3 3.3 0 002.86 5h30.94a3.32 3.32 0 013.31 3.31v38.35a3.31 3.31 0 003.3 3.31h40.33a3.31 3.31 0 003.31-3.31v-18.54a3.3 3.3 0 013.3-3.3h38.39a3.31 3.31 0 013.31 3.3v18.54a3.31 3.31 0 003.31 3.31h40.38a3.31 3.31 0 003.31-3.31v-38.39a3.31 3.31 0 013.31-3.31h30.94a3.31 3.31 0 002.87-4.96zM790.61 738.1a3.3 3.3 0 01-2.34 1h-14.56a3.31 3.31 0 010-6.62h14.56a3.31 3.31 0 012.34 5.65zm95.28 0a3.3 3.3 0 01-2.34 1H869a3.31 3.31 0 010-6.62h14.55a3.31 3.31 0 012.34 5.65zM294.13 719.8L190.41 540.15a3.31 3.31 0 00-5.73 0L95.09 695.32a273.67 273.67 0 0037.53 38.71h14.56a3.31 3.31 0 010 6.62h-6.16a160.29 160.29 0 0024 14.93v-7.65a3.31 3.31 0 013.31-3.31h38.46a3.31 3.31 0 013.3 3.31v18.52a3.22 3.22 0 00.31 1.39 3.31 3.31 0 003 1.92h40.37a3.24 3.24 0 002.63-1.33 3.18 3.18 0 00.67-2v-38.35a3.31 3.31 0 013.31-3.31h30.94a3.31 3.31 0 002.81-4.97zM225.57 735a3.3 3.3 0 012.34-1h14.56a3.31 3.31 0 010 6.62h-14.56a3.31 3.31 0 01-2.34-5.65zm-65.15-66.48a3.31 3.31 0 01-3.31-3.31v-25.14a3.31 3.31 0 013.31-3.31h54.26a3.31 3.31 0 013.3 3.31v25.14a3.31 3.31 0 01-3.3 3.31zM704.11 397.08H575.79v-27.76a6.64 6.64 0 00-6.64-6.64h-37.72v-29.57a4.18 4.18 0 00-4.18-4.18H478.7a4.18 4.18 0 00-4.18 4.18v29.57h-44.31a6.64 6.64 0 00-6.64 6.64v27.76H301.18a1.35 1.35 0 00-1.34 1.35v368.52a1.35 1.35 0 001.34 1.35h81.34a1.35 1.35 0 001.35-1.35v-49.58a1.36 1.36 0 011.35-1.35h34.36a1.36 1.36 0 011.35 1.35v49.58a1.35 1.35 0 001.34 1.35h160.75a1.36 1.36 0 001.35-1.35v-49.58a1.35 1.35 0 011.34-1.35h34.36a1.35 1.35 0 011.35 1.35v49.58a1.36 1.36 0 001.35 1.35h81.34a1.36 1.36 0 001.35-1.35V398.43a1.36 1.36 0 00-1.35-1.35zM369.31 698.8a1.34 1.34 0 01-1.34 1.34h-50.24a1.34 1.34 0 01-1.35-1.34v-17.16a1.35 1.35 0 011.35-1.35h50.24a1.35 1.35 0 011.34 1.35zm0-44.34a1.34 1.34 0 01-1.34 1.35h-50.24a1.34 1.34 0 01-1.35-1.35v-17.15a1.34 1.34 0 011.35-1.35h50.24a1.34 1.34 0 011.34 1.35zm0-44.33a1.35 1.35 0 01-1.34 1.35h-50.24a1.35 1.35 0 01-1.35-1.35v-17.16a1.35 1.35 0 011.35-1.35h50.24a1.35 1.35 0 011.34 1.35zm0-44.34a1.34 1.34 0 01-1.34 1.35h-50.24a1.34 1.34 0 01-1.35-1.35v-17.15a1.34 1.34 0 011.35-1.35h50.24a1.34 1.34 0 011.34 1.35zm0-44.33a1.35 1.35 0 01-1.34 1.35h-50.24a1.35 1.35 0 01-1.35-1.35V504.3a1.34 1.34 0 011.35-1.34h50.24a1.34 1.34 0 011.34 1.34zm0-44.33a1.34 1.34 0 01-1.34 1.34h-50.24a1.34 1.34 0 01-1.35-1.34v-17.16a1.35 1.35 0 011.35-1.35h50.24a1.35 1.35 0 011.34 1.35zm0-44.34a1.34 1.34 0 01-1.34 1.35h-50.24a1.34 1.34 0 01-1.35-1.35v-17.15a1.34 1.34 0 011.35-1.35h50.24a1.34 1.34 0 011.34 1.35zm119.11 266a1.34 1.34 0 01-1.35 1.34h-50.28a1.35 1.35 0 01-1.35-1.34v-17.15a1.36 1.36 0 011.35-1.35h50.24a1.35 1.35 0 011.35 1.35zm0-44.34a1.34 1.34 0 01-1.35 1.35h-50.28a1.35 1.35 0 01-1.35-1.35v-17.14a1.35 1.35 0 011.35-1.35h50.24a1.34 1.34 0 011.35 1.35zm0-44.33a1.35 1.35 0 01-1.35 1.35h-50.28a1.36 1.36 0 01-1.35-1.35v-17.15a1.36 1.36 0 011.35-1.35h50.24a1.35 1.35 0 011.35 1.35zm0-44.34a1.34 1.34 0 01-1.35 1.35h-50.28a1.35 1.35 0 01-1.35-1.35v-17.14a1.35 1.35 0 011.35-1.35h50.24a1.34 1.34 0 011.35 1.35zm0-44.33a1.35 1.35 0 01-1.35 1.35h-50.28a1.36 1.36 0 01-1.35-1.35V504.3a1.35 1.35 0 011.35-1.34h50.24a1.34 1.34 0 011.35 1.34zm0-44.33a1.34 1.34 0 01-1.35 1.34h-50.28a1.35 1.35 0 01-1.35-1.34v-17.15a1.36 1.36 0 011.35-1.35h50.24a1.35 1.35 0 011.35 1.35zm0-44.34a1.34 1.34 0 01-1.35 1.35h-50.28a1.35 1.35 0 01-1.35-1.35v-17.14a1.35 1.35 0 011.35-1.35h50.24a1.34 1.34 0 011.35 1.35zm81.39 266a1.34 1.34 0 01-1.35 1.34h-50.24a1.35 1.35 0 01-1.35-1.34v-17.14a1.36 1.36 0 011.35-1.35h50.24a1.35 1.35 0 011.35 1.35zm0-44.34a1.34 1.34 0 01-1.35 1.35h-50.24a1.35 1.35 0 01-1.35-1.35v-17.13a1.35 1.35 0 011.35-1.35h50.24a1.34 1.34 0 011.35 1.35zm0-44.33a1.35 1.35 0 01-1.35 1.35h-50.24a1.36 1.36 0 01-1.35-1.35v-17.14a1.36 1.36 0 011.35-1.35h50.24a1.35 1.35 0 011.35 1.35zm0-44.34a1.34 1.34 0 01-1.35 1.35h-50.24a1.35 1.35 0 01-1.35-1.35v-17.13a1.35 1.35 0 011.35-1.35h50.24a1.34 1.34 0 011.35 1.35zm0-44.33a1.35 1.35 0 01-1.35 1.35h-50.24a1.36 1.36 0 01-1.35-1.35V504.3a1.35 1.35 0 011.35-1.34h50.24a1.34 1.34 0 011.35 1.34zm0-44.33a1.34 1.34 0 01-1.35 1.34h-50.24a1.35 1.35 0 01-1.35-1.34v-17.14a1.36 1.36 0 011.35-1.35h50.24a1.35 1.35 0 011.35 1.35zm0-44.34a1.34 1.34 0 01-1.35 1.35h-50.24a1.35 1.35 0 01-1.35-1.35v-17.13a1.35 1.35 0 011.35-1.35h50.24a1.34 1.34 0 011.35 1.35zm119.11 266a1.35 1.35 0 01-1.35 1.34h-50.24a1.34 1.34 0 01-1.35-1.34v-17.13a1.35 1.35 0 011.35-1.35h50.24a1.36 1.36 0 011.35 1.35zm0-44.34a1.35 1.35 0 01-1.35 1.35h-50.24a1.34 1.34 0 01-1.35-1.35v-17.12a1.34 1.34 0 011.35-1.35h50.24a1.35 1.35 0 011.35 1.35zm0-44.33a1.36 1.36 0 01-1.35 1.35h-50.24a1.35 1.35 0 01-1.35-1.35v-17.13a1.35 1.35 0 011.35-1.35h50.24a1.36 1.36 0 011.35 1.35zm0-44.34a1.35 1.35 0 01-1.35 1.35h-50.24a1.34 1.34 0 01-1.35-1.35v-17.12a1.34 1.34 0 011.35-1.35h50.24a1.35 1.35 0 011.35 1.35zm0-44.33a1.36 1.36 0 01-1.35 1.35h-50.24a1.35 1.35 0 01-1.35-1.35V504.3a1.34 1.34 0 011.35-1.34h50.24a1.35 1.35 0 011.35 1.34zm0-44.33a1.35 1.35 0 01-1.35 1.34h-50.24a1.34 1.34 0 01-1.35-1.34v-17.13a1.35 1.35 0 011.35-1.35h50.24a1.36 1.36 0 011.35 1.35zm0-44.34a1.35 1.35 0 01-1.35 1.35h-50.24a1.34 1.34 0 01-1.35-1.35v-17.12a1.34 1.34 0 011.35-1.35h50.24a1.35 1.35 0 011.35 1.35z" fill="#6c63ff" opacity=".1"/><g opacity=".1"><path d="M89.93 644.6a24.45 24.45 0 01-3.23 12.38 25.34 25.34 0 010 24.76 22.75 22.75 0 012.44 6 454.1 454.1 0 01-30.09-45 24 24 0 013.16-10.56 24.45 24.45 0 01-3.23-12.3 25.46 25.46 0 011.46-8.61 21.39 21.39 0 011.77-3.77c2.82-4.79 7.26-7.88 12.24-7.88s9.43 3.09 12.25 7.88a22.28 22.28 0 011.73 3.65 25.63 25.63 0 011.5 8.73 24.45 24.45 0 01-3.23 12.38 24.45 24.45 0 013.23 12.34z" fill="#3f3d56"/><ellipse cx="74.45" cy="595.08" rx="15.47" ry="20.26" fill="#3f3d56"/><ellipse cx="74.45" cy="570.32" rx="15.47" ry="20.26" fill="#3f3d56"/><path d="M148.25 446.71a73.78 73.78 0 01-15.87 45.83 74.13 74.13 0 01-44 118.57c-1.78.36-3.59.64-5.42.86a74.89 74.89 0 01-17 .09q-2.82-.3-5.57-.83a73.3 73.3 0 01-23-8.41 738.54 738.54 0 01-34.91-83.83 73.79 73.79 0 0113.29-26.45 74.19 74.19 0 01-11.95-69.61l56.28 18.89L7.32 414.4a74.43 74.43 0 018.54-13.52 74.13 74.13 0 11122.43-82.95l-54.41 40 59-30.6a74.22 74.22 0 01-1.42 58.73l-44-.33 40.66 6.68a74.43 74.43 0 01-5.77 8.48 73.8 73.8 0 0115.9 45.82z" fill="#6c63ff"/><path d="M148.25 538.37a74.15 74.15 0 01-59.82 72.74c-1.78.36-3.59.64-5.42.86a74.89 74.89 0 01-17 .09q-2.82-.3-5.57-.83a73.3 73.3 0 01-23-8.41 738.54 738.54 0 01-34.91-83.83 73.79 73.79 0 0113.29-26.45A73.83 73.83 0 01-.04 446.71c0-8.32 142.32 33.22 132.38 45.83a73.78 73.78 0 0115.91 45.83z" opacity=".1"/></g><g opacity=".1"><path d="M982.48 625.32c-2.9 9.26-6 18.45-9.18 27.43a25.69 25.69 0 01-1.32-8.21c0-8.93 4.4-16.52 10.5-19.22z" fill="#3f3d56"/><path d="M1013.58 465.75c0 17.56-3.54 45.28-10 77a846.64 846.64 0 01-21.15 82.57c-2.9 9.26-6 18.45-9.18 27.43-3.65 10.19-7.5 20.11-11.53 29.6a74.4 74.4 0 01-32.91-115.76 74.5 74.5 0 01-12-69.77l56.28 18.93-52.78-27.48a74.67 74.67 0 018.45-13.55 74.39 74.39 0 0129.12-114.24 127.55 127.55 0 0148.75 63.93l-9.85 7.25 10.46-5.43a127 127 0 016.09 33.32h-2.94l3 .49c.15 1.84.19 3.84.19 5.71z" fill="#6c63ff"/><path d="M1003.63 542.75a846.64 846.64 0 01-21.15 82.57c-2.9 9.26-6 18.45-9.18 27.43-3.65 10.19-7.5 20.11-11.53 29.6a74.4 74.4 0 01-32.91-115.76A74.12 74.12 0 01913 520.65c0-5.03 51.72 8.11 90.63 22.1z" opacity=".1"/></g><path d="M323.53 123.19a28.9 28.9 0 00-16.74 1.83 24.71 24.71 0 01-20.14 0 28.26 28.26 0 00-23.68.46 14.64 14.64 0 01-6.82 1.71c-9.6 0-17.59-9.67-19.25-22.43a18.58 18.58 0 004.8-5.18c5.63-9.07 14.35-14.89 24.14-14.89s18.4 5.75 24 14.73a18.53 18.53 0 0015.95 8.71h.25c7.65 0 14.27 6.13 17.49 15.06z" fill="#6c63ff" opacity=".1"/><path d="M352.79 83.14l-15.52 9.85 9.41-17.11a15.4 15.4 0 00-9.39-3.35h-.25a18.16 18.16 0 01-3.22-.23l-5.26 3.33 2.26-4.1a18.68 18.68 0 01-9.2-7l-9.42 6 5.95-10.81c-5.51-6.61-12.93-10.67-21.09-10.67-9.79 0-18.51 5.83-24.14 14.9a18 18 0 01-16 8.6h-.53c-10.81 0-19.57 12.26-19.57 27.37s8.76 27.37 19.57 27.37a14.72 14.72 0 006.82-1.7 28.22 28.22 0 0123.68-.47 24.71 24.71 0 0020.14.05 28.29 28.29 0 0123.48.45 14.65 14.65 0 006.74 1.67c10.81 0 19.57-12.25 19.57-27.37a34.76 34.76 0 00-4.03-16.78zM768.53 286.67a20.23 20.23 0 00-11.74 1.28 17.27 17.27 0 01-14.1 0 19.8 19.8 0 00-16.58.32 10.29 10.29 0 01-4.77 1.2c-6.72 0-12.31-6.78-13.47-15.71a12.94 12.94 0 003.36-3.62c3.94-6.35 10-10.42 16.89-10.42s12.89 4 16.83 10.3a13 13 0 0011.16 6.14h.18c5.35-.03 9.98 4.26 12.24 10.51z" fill="#6c63ff" opacity=".1"/><path d="M789 258.64l-10.86 6.89 6.59-12a10.69 10.69 0 00-6.57-2.35h-.17a11.21 11.21 0 01-2.25-.17l-3.69 2.34 1.58-2.87a13.13 13.13 0 01-6.44-4.89l-6.59 4.18 4.16-7.57c-3.85-4.62-9.05-7.46-14.76-7.46-6.85 0-13 4.07-16.9 10.42a12.65 12.65 0 01-11.17 6h-.37c-7.56 0-13.7 8.58-13.7 19.16s6.14 19.16 13.7 19.16a10.17 10.17 0 004.77-1.2 19.8 19.8 0 0116.58-.32 17.5 17.5 0 007.09 1.52 17.29 17.29 0 007-1.49 19.79 19.79 0 0116.43.32 10.24 10.24 0 004.72 1.17c7.57 0 13.7-8.58 13.7-19.16a24.35 24.35 0 00-2.85-11.68zM191.2 241.67a20.24 20.24 0 0111.74 1.28 17.24 17.24 0 0014.09 0 19.8 19.8 0 0116.58.32 10.32 10.32 0 004.77 1.2c6.72 0 12.32-6.78 13.48-15.71a12.79 12.79 0 01-3.36-3.62c-3.94-6.35-10-10.42-16.9-10.42s-12.88 4-16.82 10.3a13 13 0 01-11.17 6.14h-.17c-5.35-.03-9.99 4.26-12.24 10.51z" fill="#6c63ff" opacity=".1"/><path d="M170.72 213.64l10.87 6.89-6.6-12a10.71 10.71 0 016.57-2.35h.23a11.26 11.26 0 002.25-.17l3.68 2.34-1.58-2.87a13.15 13.15 0 006.45-4.89l6.59 4.18-4.17-7.57c3.86-4.62 9.05-7.46 14.77-7.46 6.85 0 12.95 4.07 16.9 10.42a12.64 12.64 0 0011.17 6h.36c7.57 0 13.7 8.58 13.7 19.16s-6.13 19.16-13.7 19.16a10.23 10.23 0 01-4.77-1.2 19.8 19.8 0 00-16.58-.32 17.45 17.45 0 01-7.08 1.52 17.22 17.22 0 01-7-1.49 19.81 19.81 0 00-16.44.32 10.21 10.21 0 01-4.72 1.17c-7.56 0-13.7-8.58-13.7-19.16a24.35 24.35 0 012.8-11.68z" fill="#6c63ff" opacity=".1"/><path d="M908.95 55.079a65.217 65.217 0 00-26.17 124.966 57.48 57.48 0 011.135-14.937l8.395-35.551a24.886 24.886 0 01-2.091-10.307c0-9.68 5.586-16.88 12.577-16.88 5.975 0 8.783 4.452 8.783 9.77 0 5.975-3.824 14.937-5.766 23.153a10.068 10.068 0 0010.307 12.547c12.339 0 20.674-15.863 20.674-34.685 0-14.28-9.65-24.975-27.127-24.975a30.89 30.89 0 00-32.115 31.25 18.821 18.821 0 004.302 12.786 2.987 2.987 0 01.926 3.615c-.329 1.195-1.016 4.092-1.345 5.258a2.21 2.21 0 01-3.256 1.613c-9.112-3.705-13.354-13.683-13.354-24.916 0-18.522 15.625-40.72 46.605-40.72 24.886 0 41.287 17.926 41.287 37.344 0 25.603-14.25 44.813-35.193 44.813a18.732 18.732 0 01-15.923-8.126s-3.794 14.937-4.6 17.925a53.775 53.775 0 01-6.573 13.981A65.217 65.217 0 10908.95 55.08z" opacity=".96" fill="#be000f"/><path d="M559.635 105.078a57.33 57.33 0 01-16.162 4.482 28.59 28.59 0 0012.398-15.625 56.344 56.344 0 01-17.925 6.841 28.172 28.172 0 00-48.756 19.27 28.86 28.86 0 00.717 6.453A79.915 79.915 0 01431.8 97.012a28.262 28.262 0 008.783 37.643 27.276 27.276 0 01-12.816-3.496v.329a28.202 28.202 0 0022.615 27.664 28.979 28.979 0 01-7.409.986 28.411 28.411 0 01-5.317-.508 28.202 28.202 0 0026.35 19.568 56.374 56.374 0 01-35.014 11.95 55.627 55.627 0 01-6.722-.418 78.75 78.75 0 0043.14 12.756c51.892 0 80.273-42.99 80.273-80.303v-3.615a57.39 57.39 0 0013.952-14.49z" opacity=".96" fill="#55acee"/><path d="M298.233 384.216H198.78a6.184 6.184 0 00-6.185 6.184v99.423a6.184 6.184 0 006.185 6.185h49.652v-44.245h-13.354V435.45h13.354v-11.95c0-14.46 10.008-22.316 22.914-22.316 6.184 0 12.816.478 14.34.687v14.937h-10.277c-6.991 0-8.335 3.346-8.335 8.216v10.396h16.7l-2.181 16.312h-14.52v44.245h31.1a6.184 6.184 0 006.155-6.184V390.4a6.184 6.184 0 00-6.095-6.184z" opacity=".96" fill="#3b5998"/><path d="M572.92 520.12l-.448-2.032h-45.59v18.821h26.38c-2.718 13.085-14.07 18.523-24.467 18.523a27.933 27.933 0 01-19.897-7.38 29.367 29.367 0 01-.358-40.749 27.365 27.365 0 0119.986-7.409 25.214 25.214 0 0116.91 6.154l13.98-13.892a47.262 47.262 0 00-31.338-11.95 46.784 46.784 0 00-47.8 47.442 47.8 47.8 0 0012.966 32.862 49.592 49.592 0 0035.85 14.46 44.095 44.095 0 0032.115-13.474 47.352 47.352 0 0012.338-32.862 53.775 53.775 0 00-.597-8.485zm56.434-2.002h-16.61v-16.58h-11.95v16.58h-16.611v11.95h16.61v16.58h11.95v-16.58h16.7z" opacity=".96" fill="#dd4b39"/><g opacity=".96" fill="#e53c5f"><path d="M173.435 64.304a23.362 23.362 0 0123.273 23.303v46.575a23.243 23.243 0 01-6.842 16.431 22.944 22.944 0 01-16.43 6.841H126.83a23.362 23.362 0 01-23.272-23.272V87.607a23.362 23.362 0 0123.272-23.303h46.605m0-9.32H126.83a32.683 32.683 0 00-32.593 32.623v46.575a32.683 32.683 0 0032.593 32.593h46.605a32.683 32.683 0 0032.594-32.593V87.607a32.683 32.683 0 00-32.594-32.683z"/><path d="M180.396 87.607a6.99 6.99 0 116.99-6.99 6.96 6.96 0 01-6.99 6.99zm-30.263 4.66a18.642 18.642 0 11-18.642 18.612 18.642 18.642 0 0118.642-18.612m0-9.32a27.963 27.963 0 1027.963 27.932 27.933 27.933 0 00-27.963-27.933z"/></g><path d="M861.633 347.406h-93.27a9.112 9.112 0 00-9.56 8.723v93.479a9.829 9.829 0 009.56 9.56h93.24a9.35 9.35 0 008.963-9.56v-93.42a8.574 8.574 0 00-8.933-8.782zm-68.115 93.24h-16.013v-49.802h16.013zm-7.468-57.36a8.604 8.604 0 118.783-8.605 8.216 8.216 0 01-8.963 8.574zm65.963 57.36h-16.072v-27.247c0-6.512-2.33-10.964-8.126-10.964a8.723 8.723 0 00-8.186 5.975 10.486 10.486 0 00-.568 3.914v28.381h-16.013v-49.861h16.013v6.93a16.222 16.222 0 0114.46-8.095c10.486 0 18.433 6.93 18.433 21.868z" opacity=".96" fill="#007bb6"/></svg>