<svg xmlns="http://www.w3.org/2000/svg" data-name="Layer 1" width="514.639" height="487.038"><circle cx="6.813" cy="6.813" r="6.813" fill="#e6e6e6"/><circle cx="41.302" cy="6.813" r="6.813" fill="#e6e6e6"/><circle cx="75.791" cy="6.813" r="6.813" fill="#e6e6e6"/><circle cx="110.28" cy="6.813" r="6.813" fill="#e6e6e6"/><circle cx="144.769" cy="6.813" r="6.813" fill="#e6e6e6"/><circle cx="179.259" cy="6.813" r="6.813" fill="#e6e6e6"/><circle cx="213.748" cy="6.813" r="6.813" fill="#e6e6e6"/><circle cx="248.237" cy="6.813" r="6.813" fill="#e6e6e6"/><circle cx="282.726" cy="6.813" r="6.813" fill="#e6e6e6"/><circle cx="317.215" cy="6.813" r="6.813" fill="#e6e6e6"/><circle cx="6.813" cy="41.735" r="6.813" fill="#e6e6e6"/><circle cx="41.302" cy="41.735" r="6.813" fill="#e6e6e6"/><circle cx="75.791" cy="41.735" r="6.813" fill="#e6e6e6"/><circle cx="110.28" cy="41.735" r="6.813" fill="#6c63ff"/><circle cx="144.769" cy="41.735" r="6.813" fill="#e6e6e6"/><circle cx="179.259" cy="41.735" r="6.813" fill="#e6e6e6"/><circle cx="213.748" cy="41.735" r="6.813" fill="#e6e6e6"/><circle cx="248.237" cy="41.735" r="6.813" fill="#e6e6e6"/><circle cx="282.726" cy="41.735" r="6.813" fill="#e6e6e6"/><circle cx="317.215" cy="41.735" r="6.813" fill="#e6e6e6"/><circle cx="6.813" cy="76.657" r="6.813" fill="#e6e6e6"/><circle cx="41.302" cy="76.657" r="6.813" fill="#e6e6e6"/><circle cx="75.791" cy="76.657" r="6.813" fill="#e6e6e6"/><circle cx="110.28" cy="76.657" r="6.813" fill="#e6e6e6"/><circle cx="144.769" cy="76.657" r="6.813" fill="#e6e6e6"/><circle cx="179.259" cy="76.657" r="6.813" fill="#e6e6e6"/><circle cx="213.748" cy="76.657" r="6.813" fill="#e6e6e6"/><circle cx="248.237" cy="76.657" r="6.813" fill="#e6e6e6"/><circle cx="282.726" cy="76.657" r="6.813" fill="#e6e6e6"/><circle cx="317.215" cy="76.657" r="6.813" fill="#e6e6e6"/><circle cx="6.813" cy="111.579" r="6.813" fill="#e6e6e6"/><circle cx="41.302" cy="111.579" r="6.813" fill="#e6e6e6"/><circle cx="75.791" cy="111.579" r="6.813" fill="#e6e6e6"/><circle cx="110.28" cy="111.579" r="6.813" fill="#e6e6e6"/><circle cx="144.769" cy="111.579" r="6.813" fill="#e6e6e6"/><circle cx="179.259" cy="111.579" r="6.813" fill="#e6e6e6"/><circle cx="213.748" cy="111.579" r="6.813" fill="#e6e6e6"/><circle cx="248.237" cy="111.579" r="6.813" fill="#e6e6e6"/><circle cx="282.726" cy="111.579" r="6.813" fill="#e6e6e6"/><circle cx="317.215" cy="111.579" r="6.813" fill="#e6e6e6"/><circle cx="6.813" cy="146.501" r="6.813" fill="#e6e6e6"/><circle cx="41.302" cy="146.501" r="6.813" fill="#6c63ff"/><circle cx="75.791" cy="146.501" r="6.813" fill="#e6e6e6"/><circle cx="110.28" cy="146.501" r="6.813" fill="#e6e6e6"/><circle cx="144.769" cy="146.501" r="6.813" fill="#e6e6e6"/><circle cx="179.259" cy="146.501" r="6.813" fill="#e6e6e6"/><circle cx="213.748" cy="146.501" r="6.813" fill="#e6e6e6"/><circle cx="248.237" cy="146.501" r="6.813" fill="#e6e6e6"/><circle cx="282.726" cy="146.501" r="6.813" fill="#e6e6e6"/><circle cx="317.215" cy="146.501" r="6.813" fill="#e6e6e6"/><circle cx="6.813" cy="181.423" r="6.813" fill="#e6e6e6"/><circle cx="41.302" cy="181.423" r="6.813" fill="#e6e6e6"/><circle cx="75.791" cy="181.423" r="6.813" fill="#e6e6e6"/><circle cx="110.28" cy="181.423" r="6.813" fill="#e6e6e6"/><circle cx="144.769" cy="181.423" r="6.813" fill="#e6e6e6"/><circle cx="179.259" cy="181.423" r="6.813" fill="#e6e6e6"/><circle cx="213.748" cy="181.423" r="6.813" fill="#e6e6e6"/><circle cx="248.237" cy="181.423" r="6.813" fill="#e6e6e6"/><circle cx="282.726" cy="181.423" r="6.813" fill="#e6e6e6"/><circle cx="317.215" cy="181.423" r="6.813" fill="#e6e6e6"/><circle cx="6.813" cy="216.345" r="6.813" fill="#e6e6e6"/><circle cx="41.302" cy="216.345" r="6.813" fill="#e6e6e6"/><circle cx="75.791" cy="216.345" r="6.813" fill="#6c63ff"/><circle cx="110.28" cy="216.345" r="6.813" fill="#e6e6e6"/><circle cx="144.769" cy="216.345" r="6.813" fill="#e6e6e6"/><circle cx="179.259" cy="216.345" r="6.813" fill="#e6e6e6"/><circle cx="213.748" cy="216.345" r="6.813" fill="#e6e6e6"/><circle cx="248.237" cy="216.345" r="6.813" fill="#e6e6e6"/><circle cx="282.726" cy="216.345" r="6.813" fill="#e6e6e6"/><circle cx="317.215" cy="216.345" r="6.813" fill="#e6e6e6"/><circle cx="6.813" cy="251.267" r="6.813" fill="#e6e6e6"/><circle cx="41.302" cy="251.267" r="6.813" fill="#e6e6e6"/><circle cx="75.791" cy="251.267" r="6.813" fill="#e6e6e6"/><circle cx="110.28" cy="251.267" r="6.813" fill="#e6e6e6"/><circle cx="144.769" cy="251.267" r="6.813" fill="#e6e6e6"/><circle cx="179.259" cy="251.267" r="6.813" fill="#e6e6e6"/><circle cx="213.748" cy="251.267" r="6.813" fill="#e6e6e6"/><circle cx="248.237" cy="251.267" r="6.813" fill="#e6e6e6"/><circle cx="282.726" cy="251.267" r="6.813" fill="#e6e6e6"/><circle cx="317.215" cy="251.267" r="6.813" fill="#e6e6e6"/><circle cx="6.813" cy="286.189" r="6.813" fill="#e6e6e6"/><circle cx="41.302" cy="286.189" r="6.813" fill="#e6e6e6"/><circle cx="75.791" cy="286.189" r="6.813" fill="#e6e6e6"/><circle cx="110.28" cy="286.189" r="6.813" fill="#e6e6e6"/><circle cx="144.769" cy="286.189" r="6.813" fill="#e6e6e6"/><circle cx="179.259" cy="286.189" r="6.813" fill="#e6e6e6"/><circle cx="213.748" cy="286.189" r="6.813" fill="#e6e6e6"/><circle cx="248.237" cy="286.189" r="6.813" fill="#e6e6e6"/><circle cx="282.726" cy="286.189" r="6.813" fill="#e6e6e6"/><circle cx="317.215" cy="286.189" r="6.813" fill="#e6e6e6"/><circle cx="6.813" cy="321.111" r="6.813" fill="#e6e6e6"/><circle cx="41.302" cy="321.111" r="6.813" fill="#e6e6e6"/><circle cx="75.791" cy="321.111" r="6.813" fill="#e6e6e6"/><circle cx="110.28" cy="321.111" r="6.813" fill="#e6e6e6"/><circle cx="144.769" cy="321.111" r="6.813" fill="#e6e6e6"/><circle cx="179.259" cy="321.111" r="6.813" fill="#e6e6e6"/><circle cx="213.748" cy="321.111" r="6.813" fill="#e6e6e6"/><circle cx="248.237" cy="321.111" r="6.813" fill="#e6e6e6"/><circle cx="282.726" cy="321.111" r="6.813" fill="#e6e6e6"/><circle cx="317.215" cy="321.111" r="6.813" fill="#e6e6e6"/><path d="M400.405 60.891a8.614 8.614 0 018.614 8.614v344.56a8.614 8.614 0 01-8.614 8.613H153.184a8.614 8.614 0 01-8.614-8.614V69.505a8.614 8.614 0 018.614-8.614h247.221" fill="#e6e6e6"/><path d="M154.186 413.062h245.216V70.508H154.186z" fill="#fff"/><path d="M344.845 124.703a1.723 1.723 0 011.722 1.723v3.446a1.723 1.723 0 01-1.722 1.723H208.744a1.723 1.723 0 01-1.723-1.723v-3.446a1.723 1.723 0 011.723-1.723h136.1M344.845 141.07a1.723 1.723 0 011.722 1.723v3.445a1.723 1.723 0 01-1.722 1.723H208.744a1.723 1.723 0 01-1.723-1.723v-3.445a1.723 1.723 0 011.723-1.723h136.1" fill="#e6e6e6"/><path d="M344.845 157.437a1.723 1.723 0 011.722 1.722v3.446a1.723 1.723 0 01-1.722 1.723H208.744a1.723 1.723 0 01-1.723-1.723v-3.446a1.723 1.723 0 011.723-1.722h136.1" fill="#6c63ff"/><path d="M344.845 174.161a1.723 1.723 0 011.722 1.723v3.446a1.723 1.723 0 01-1.722 1.722H208.744a1.723 1.723 0 01-1.723-1.722v-3.446a1.723 1.723 0 011.723-1.723h136.1M344.845 190.528a1.723 1.723 0 011.722 1.723v3.445a1.723 1.723 0 01-1.722 1.723H208.744a1.723 1.723 0 01-1.723-1.723v-3.445a1.723 1.723 0 011.723-1.723h136.1M344.845 206.894a1.723 1.723 0 011.722 1.723v3.446a1.723 1.723 0 01-1.722 1.723H208.744a1.723 1.723 0 01-1.723-1.723v-3.446a1.723 1.723 0 011.723-1.723h136.1" fill="#e6e6e6"/><path d="M209.613 261.95a2.002 2.002 0 00-2 2v92.916a2.002 2.002 0 002 2h134.13a2.002 2.002 0 002-2v-92.915a2.002 2.002 0 00-2-2z" fill="#6c63ff"/><path fill="#3f3d56" d="M306.56 45.22h178.226v1.457H307.68l-30.438 114.504-1.408-.374z"/><path d="M499.348 61.24a15.29 15.29 0 1115.291-15.291 15.308 15.308 0 01-15.29 15.29zm0-29.126a13.835 13.835 0 1013.835 13.835 13.85 13.85 0 00-13.835-13.835z" fill="#3f3d56"/><circle cx="499.348" cy="45.949" r="5.825" fill="#6c63ff"/><path fill="#3f3d56" d="M242.938 472.844l-178.225-.34.003-1.458 177.105.34 30.657-114.446 1.407.376z"/><path d="M50.18 456.456a15.29 15.29 0 11-15.32 15.262 15.308 15.308 0 0115.32-15.262zm-.055 29.125a13.835 13.835 0 10-13.808-13.86 13.85 13.85 0 0013.808 13.86z" fill="#3f3d56"/><circle cx="50.151" cy="471.747" r="5.825" fill="#6c63ff"/></svg>