<svg xmlns="http://www.w3.org/2000/svg" data-name="Layer 1" width="575.013" height="324.148"><path data-name="Path 336" d="M363.66 137.659a7.6 7.6 0 00-6.95-4.65H217.983a7.524 7.524 0 00-7.52 7.52v175.5a7.524 7.524 0 007.52 7.52h138.73a7.53 7.53 0 007.52-7.52v-175.5a7.385 7.385 0 00-.57-2.87zm-1.1 178.37a5.857 5.857 0 01-5.85 5.85H217.983a5.851 5.851 0 01-5.85-5.849v-175.5a5.858 5.858 0 015.85-5.85h138.73a5.88 5.88 0 015.43 3.68 6.486 6.486 0 01.22.66 5.8 5.8 0 01.2 1.51z" fill="#3f3d56"/><path data-name="Path 337" d="M334.71 174.444h-41.786a3.343 3.343 0 110-6.686h41.785a3.343 3.343 0 110 6.686z" fill="#3f3d56"/><path data-name="Path 338" d="M334.71 191.994h-41.786a3.343 3.343 0 110-6.686h41.785a3.343 3.343 0 110 6.686z" fill="#3f3d56"/><path data-name="Path 339" d="M271.483 201.987h-30.537a3.765 3.765 0 01-3.76-3.761V162.19a3.765 3.765 0 013.76-3.761h30.537a3.765 3.765 0 013.761 3.761v36.036a3.765 3.765 0 01-3.76 3.761z" fill="#6c63ff"/><path data-name="Path 340" d="M334.42 227.93h-94.437a3.343 3.343 0 010-6.686h94.436a3.343 3.343 0 110 6.686z" fill="#ccc"/><path data-name="Path 341" d="M334.42 245.48h-94.437a3.343 3.343 0 010-6.686h94.436a3.343 3.343 0 110 6.686z" fill="#ccc"/><path data-name="Path 342" d="M334.42 263.03h-94.437a3.343 3.343 0 010-6.686h94.436a3.343 3.343 0 110 6.686z" fill="#ccc"/><path data-name="Path 343" d="M334.42 280.58h-94.437a3.343 3.343 0 010-6.686h94.436a3.343 3.343 0 110 6.686z" fill="#ccc"/><path data-name="Path 344" d="M334.42 298.13h-94.437a3.343 3.343 0 010-6.686h94.436a3.343 3.343 0 110 6.686z" fill="#ccc"/><circle data-name="Ellipse 44" cx="289.697" cy="58.462" r="32.262" fill="#6c63ff"/><path data-name="Path 395" d="M286.5 70.769a3.346 3.346 0 01-2.013-.669l-.036-.027-7.582-5.8a3.37 3.37 0 114.1-5.348l4.91 3.766 11.606-15.14a3.368 3.368 0 014.722-.624v.001l-.071.1.074-.1a3.372 3.372 0 01.623 4.723l-13.65 17.8a3.37 3.37 0 01-2.68 1.314z" fill="#fff"/><circle data-name="Ellipse 46" cx="77.296" cy="21.862" r="21.862" fill="#ccc"/><path data-name="Path 408" d="M75.13 30.201a2.268 2.268 0 01-1.365-.453l-.024-.018-5.138-3.934a2.283 2.283 0 012.776-3.624l3.328 2.552 7.864-10.256a2.282 2.282 0 013.2-.422l-.048.066.05-.065a2.285 2.285 0 01.422 3.2l-9.25 12.064a2.283 2.283 0 01-1.816.891z" fill="#fff"/><path data-name="Path 410" d="M138.731 73.122a5.982 5.982 0 00-5.468-3.659H24.103a5.92 5.92 0 00-5.918 5.917v138.093a5.92 5.92 0 005.917 5.917h109.161a5.925 5.925 0 005.917-5.917V75.38a5.81 5.81 0 00-.449-2.258zm-.865 140.352a4.609 4.609 0 01-4.6 4.6H24.102a4.6 4.6 0 01-4.6-4.6V75.38a4.609 4.609 0 014.6-4.6h109.161a4.626 4.626 0 014.273 2.9 5.108 5.108 0 01.173.519 4.559 4.559 0 01.158 1.188z" fill="#ccc"/><path data-name="Path 411" d="M115.948 102.067h-32.88a2.63 2.63 0 010-5.261h32.88a2.63 2.63 0 010 5.261z" fill="#ccc"/><path data-name="Path 412" d="M115.948 115.877h-32.88a2.63 2.63 0 010-5.261h32.88a2.63 2.63 0 010 5.261z" fill="#ccc"/><path data-name="Path 413" d="M66.197 123.74H42.17a2.962 2.962 0 01-2.959-2.959V92.426a2.962 2.962 0 012.96-2.959h24.027a2.963 2.963 0 012.96 2.959v28.355a2.962 2.962 0 01-2.96 2.959z" fill="#ccc"/><path data-name="Path 414" d="M115.72 144.153H41.411a2.63 2.63 0 010-5.261h74.307a2.63 2.63 0 010 5.261z" fill="#ccc"/><path data-name="Path 415" d="M115.72 157.967H41.411a2.63 2.63 0 010-5.261h74.307a2.63 2.63 0 010 5.261z" fill="#ccc"/><path data-name="Path 416" d="M115.72 171.772H41.411a2.63 2.63 0 010-5.261h74.307a2.63 2.63 0 010 5.261z" fill="#ccc"/><path data-name="Path 417" d="M115.72 185.585H41.411a2.63 2.63 0 010-5.261h74.307a2.63 2.63 0 010 5.261z" fill="#ccc"/><path data-name="Path 418" d="M115.72 199.391H41.411a2.63 2.63 0 010-5.261h74.307a2.63 2.63 0 110 5.261z" fill="#ccc"/><path data-name="Path 419" d="M.791 219.967h153.434a.787.787 0 000-1.574H.791a.787.787 0 10-.009 1.574z" fill="#ccc"/><circle data-name="Ellipse 46" cx="497.296" cy="21.862" r="21.862" fill="#ccc"/><path data-name="Path 408" d="M495.13 30.201a2.268 2.268 0 01-1.365-.453l-.024-.018-5.138-3.934a2.283 2.283 0 012.776-3.624l3.328 2.552 7.864-10.256a2.282 2.282 0 013.2-.422l-.049.066.05-.065a2.285 2.285 0 01.422 3.2l-9.25 12.064a2.283 2.283 0 01-1.816.891z" fill="#fff"/><path data-name="Path 410" d="M558.731 73.122a5.982 5.982 0 00-5.468-3.659h-109.16a5.92 5.92 0 00-5.918 5.917v138.093a5.92 5.92 0 005.917 5.917h109.161a5.925 5.925 0 005.917-5.917V75.38a5.81 5.81 0 00-.449-2.258zm-.865 140.352a4.609 4.609 0 01-4.6 4.6H444.102a4.6 4.6 0 01-4.6-4.6V75.38a4.609 4.609 0 014.6-4.6h109.161a4.626 4.626 0 014.273 2.9 5.108 5.108 0 01.173.519 4.559 4.559 0 01.158 1.188z" fill="#ccc"/><path data-name="Path 411" d="M535.948 102.067h-32.88a2.63 2.63 0 010-5.261h32.88a2.63 2.63 0 010 5.261z" fill="#ccc"/><path data-name="Path 412" d="M535.948 115.877h-32.88a2.63 2.63 0 010-5.261h32.88a2.63 2.63 0 010 5.261z" fill="#ccc"/><path data-name="Path 413" d="M486.197 123.74H462.17a2.962 2.962 0 01-2.959-2.959V92.426a2.962 2.962 0 012.96-2.959h24.027a2.963 2.963 0 012.96 2.959v28.355a2.962 2.962 0 01-2.96 2.959z" fill="#ccc"/><path data-name="Path 414" d="M535.72 144.153h-74.308a2.63 2.63 0 010-5.261h74.307a2.63 2.63 0 010 5.261z" fill="#ccc"/><path data-name="Path 415" d="M535.72 157.967h-74.308a2.63 2.63 0 010-5.261h74.307a2.63 2.63 0 010 5.261z" fill="#ccc"/><path data-name="Path 416" d="M535.72 171.772h-74.308a2.63 2.63 0 010-5.261h74.307a2.63 2.63 0 110 5.261z" fill="#ccc"/><path data-name="Path 417" d="M535.72 185.585h-74.308a2.63 2.63 0 010-5.261h74.307a2.63 2.63 0 010 5.261z" fill="#ccc"/><path data-name="Path 418" d="M535.72 199.391h-74.308a2.63 2.63 0 110-5.261h74.307a2.63 2.63 0 110 5.261z" fill="#ccc"/><path data-name="Path 419" d="M420.791 219.967h153.434a.787.787 0 000-1.574H420.791a.787.787 0 10-.009 1.574z" fill="#ccc"/><path data-name="Path 420" d="M189.004 324.148h195a1 1 0 000-2h-195a1 1 0 000 2z" fill="#3f3d56"/></svg>